<?xml version="1.0" standalone="no"?>
<!DOCTYPE svg PUBLIC "-//W3C//DTD SVG 20010904//EN"
 "http://www.w3.org/TR/2001/REC-SVG-20010904/DTD/svg10.dtd">
<svg version="1.0" xmlns="http://www.w3.org/2000/svg"
 width="1024.000000pt" height="1024.000000pt" viewBox="0 0 1024.000000 1024.000000"
 preserveAspectRatio="xMidYMid meet">
<metadata>
Created by potrace 1.11, written by Peter Selinger 2001-2013
</metadata>
<g transform="translate(0.000000,1024.000000) scale(0.100000,-0.100000)"
fill="#000000" stroke="none">
<path d="M1110 10234 c-95 -17 -220 -50 -286 -75 -397 -152 -686 -480 -792
-899 -24 -96 -27 -122 -27 -300 0 -179 2 -204 27 -301 105 -414 394 -744 783
-894 95 -37 242 -75 288 -75 53 0 26 -16 -49 -28 -41 -6 -122 -27 -179 -46
-424 -142 -726 -470 -842 -912 -26 -102 -28 -122 -28 -304 0 -178 3 -204 27
-301 92 -364 323 -660 649 -833 98 -52 264 -110 364 -127 105 -17 107 -20 20
-35 -470 -81 -865 -425 -1008 -880 -76 -241 -76 -527 0 -768 142 -451 544
-804 998 -877 86 -13 120 -29 65 -29 -54 0 -232 -46 -323 -84 -387 -161 -660
-480 -764 -893 -25 -98 -27 -125 -27 -293 0 -168 2 -195 27 -293 80 -318 242
-556 517 -760 106 -78 276 -154 437 -194 98 -25 125 -27 293 -27 168 0 195 2
293 27 480 120 838 477 952 949 14 57 25 119 25 137 0 56 16 22 29 -64 73
-454 426 -856 877 -998 241 -76 527 -76 768 0 453 142 804 544 880 1007 15 90
16 89 40 -39 47 -246 165 -464 351 -650 191 -192 425 -314 689 -360 114 -19
318 -19 432 0 433 76 790 359 966 766 39 91 88 270 88 322 0 15 5 27 10 27 6
0 10 -12 10 -27 0 -52 49 -231 88 -322 166 -385 480 -649 895 -753 80 -20 117
-23 287 -23 169 0 207 3 285 23 489 122 841 471 963 952 24 96 27 122 27 300
0 178 -3 204 -27 300 -121 480 -482 836 -958 950 -47 11 -97 20 -112 20 -54 0
-27 16 48 28 90 14 258 69 346 113 336 168 582 476 676 848 25 97 27 122 27
301 0 178 -3 204 -27 300 -95 373 -340 681 -676 849 -84 42 -250 97 -337 112
-105 17 -107 20 -20 35 472 81 864 424 1009 883 75 236 74 525 -1 765 -142
451 -544 804 -998 877 -86 13 -120 29 -64 29 18 0 80 11 137 25 472 114 829
472 949 952 25 98 27 125 27 293 0 168 -2 195 -27 293 -121 483 -471 833 -954
954 -98 25 -125 27 -293 27 -168 0 -195 -2 -293 -27 -477 -120 -828 -466 -948
-936 -16 -62 -29 -129 -29 -149 0 -57 -15 -24 -29 63 -73 454 -426 856 -877
998 -297 93 -635 72 -923 -59 -118 -54 -267 -159 -366 -259 -188 -187 -314
-431 -359 -690 -15 -89 -16 -88 -40 40 -47 247 -165 466 -350 650 -151 151
-302 244 -499 310 -139 46 -256 65 -407 65 -333 0 -634 -118 -877 -345 -181
-168 -305 -380 -367 -625 -14 -57 -26 -116 -26 -131 0 -16 -4 -29 -10 -29 -5
0 -10 12 -10 28 0 15 -11 72 -24 127 -99 409 -397 745 -791 894 -153 58 -234
73 -425 76 -96 2 -186 1 -200 -1z m6610 -1595 c99 -387 381 -709 757 -865 91
-38 269 -84 323 -84 55 0 21 -16 -65 -29 -513 -82 -954 -523 -1036 -1036 -14
-87 -29 -120 -29 -63 0 20 -13 87 -29 149 -102 401 -375 716 -758 875 -91 38
-269 84 -322 84 -56 0 -22 16 64 29 510 82 959 529 1036 1034 15 101 21 110
30 46 4 -31 18 -94 29 -140z m-2545 -57 c140 -453 544 -810 1000 -883 86 -13
120 -29 65 -29 -54 0 -232 -46 -323 -84 -383 -159 -656 -474 -758 -875 -16
-62 -29 -129 -29 -149 0 -57 -15 -24 -29 63 -73 456 -430 860 -883 1000 -46
14 -119 31 -163 39 -87 15 -85 18 20 35 87 15 253 70 337 112 249 124 471 351
587 600 51 110 76 184 97 294 24 128 25 129 40 40 8 -44 25 -117 39 -163z
m-2605 201 c0 -16 11 -74 25 -129 85 -353 321 -655 646 -828 98 -52 264 -110
364 -127 105 -17 107 -20 20 -35 -259 -45 -503 -171 -690 -359 -188 -187 -314
-431 -359 -690 -15 -89 -16 -88 -40 40 -72 377 -334 719 -684 894 -88 44 -256
99 -346 113 -75 12 -102 28 -48 28 45 0 192 38 287 75 389 150 682 484 781
890 13 55 24 112 24 128 0 15 5 27 10 27 6 0 10 -12 10 -27z m2590 -2704 c99
-387 381 -709 757 -865 91 -38 269 -84 323 -84 55 0 21 -16 -65 -29 -513 -82
-954 -523 -1036 -1036 -14 -87 -29 -120 -29 -63 0 20 -13 87 -29 149 -102 401
-375 716 -758 875 -91 38 -269 84 -322 84 -56 0 -22 16 64 29 510 82 959 529
1036 1034 15 101 21 110 30 46 4 -31 18 -94 29 -140z m2539 96 c73 -456 430
-860 883 -1000 46 -14 119 -31 163 -39 87 -15 85 -18 -20 -35 -87 -15 -253
-70 -337 -112 -116 -58 -232 -143 -334 -244 -185 -185 -303 -405 -351 -655
-23 -122 -24 -123 -39 -35 -91 529 -522 963 -1039 1046 -86 13 -120 29 -64 29
54 0 232 47 327 86 312 129 567 384 696 696 39 95 86 273 86 328 0 55 16 21
29 -65z m-5084 -153 c140 -453 544 -810 1000 -883 86 -13 120 -29 65 -29 -54
0 -232 -46 -323 -84 -383 -159 -656 -474 -758 -875 -16 -62 -29 -129 -29 -149
0 -57 -15 -24 -29 63 -73 456 -430 860 -883 1000 -46 14 -119 31 -163 39 -87
15 -85 18 20 35 87 15 253 70 337 112 249 124 471 351 587 600 51 110 76 184
97 294 24 128 25 129 40 40 8 -44 25 -117 39 -163z m-15 -2503 c99 -387 381
-709 757 -865 91 -38 269 -84 323 -84 55 0 21 -16 -65 -29 -513 -82 -954 -523
-1036 -1036 -14 -87 -29 -120 -29 -63 0 20 -13 87 -29 149 -102 401 -375 716
-758 875 -91 38 -269 84 -322 84 -56 0 -22 16 64 29 510 82 959 529 1036 1034
15 101 21 110 30 46 4 -31 18 -94 29 -140z m2539 96 c73 -456 430 -860 883
-1000 46 -14 119 -31 163 -39 87 -15 85 -18 -20 -35 -87 -15 -253 -70 -337
-112 -116 -58 -232 -143 -334 -244 -185 -185 -303 -405 -351 -655 -23 -122
-24 -123 -39 -35 -91 529 -522 963 -1039 1046 -86 13 -120 29 -64 29 54 0 232
47 327 86 312 129 567 384 696 696 39 95 86 273 86 328 0 55 16 21 29 -65z
m2551 47 c0 -15 11 -73 25 -128 85 -353 321 -655 646 -828 101 -54 270 -112
373 -128 75 -12 102 -28 49 -28 -44 0 -190 -38 -278 -71 -394 -149 -692 -485
-791 -894 -13 -55 -24 -112 -24 -127 0 -16 -4 -28 -10 -28 -5 0 -10 12 -10 28
0 15 -11 72 -24 127 -88 363 -339 677 -674 844 -84 42 -250 97 -337 112 -105
17 -107 20 -20 35 484 83 882 441 1019 916 14 47 28 113 32 147 6 59 24 76 24
23z"/>
</g>
</svg>
