<?xml version="1.0" standalone="no"?>
<!DOCTYPE svg PUBLIC "-//W3C//DTD SVG 20010904//EN"
 "http://www.w3.org/TR/2001/REC-SVG-20010904/DTD/svg10.dtd">
<svg version="1.0" xmlns="http://www.w3.org/2000/svg"
 width="700.000000pt" height="700.000000pt" viewBox="0 0 700.000000 700.000000"
 preserveAspectRatio="xMidYMid meet">
<metadata>
Created by potrace 1.11, written by Peter Selinger 2001-2013
</metadata>
<g transform="translate(0.000000,700.000000) scale(0.100000,-0.100000)"
fill="#000000" stroke="none">
<path d="M2215 5289 c-103 -15 -131 -20 -185 -36 -30 -9 -70 -19 -89 -22 -46
-8 -51 -41 -14 -90 47 -62 205 -221 258 -259 27 -20 52 -40 53 -44 2 -5 8 -8
12 -8 5 0 28 -13 52 -29 97 -65 183 -104 333 -151 32 -9 153 -41 170 -44 6 -1
16 -5 23 -10 7 -4 16 -6 18 -3 3 3 20 1 37 -4 18 -6 41 -12 52 -14 50 -10 74
-16 125 -30 30 -8 67 -15 82 -15 15 0 29 -4 32 -8 2 -4 -54 -13 -126 -20 -321
-31 -440 -84 -636 -282 -77 -77 -204 -278 -207 -325 0 -6 -27 -9 -66 -7 -106
6 -228 -34 -326 -106 -18 -14 -33 -20 -33 -15 0 16 -110 93 -178 125 -118 56
-255 52 -367 -11 l-51 -29 23 69 c15 46 23 102 26 171 6 141 12 165 49 218 40
56 54 70 67 70 6 0 11 -6 11 -12 1 -30 74 -91 114 -94 134 -14 147 -13 192 2
82 28 114 85 113 202 -1 43 -8 92 -15 111 -20 47 -76 94 -129 106 -5 2 -30 8
-55 15 -25 7 -56 14 -70 17 -14 2 -45 10 -70 17 -25 6 -72 11 -105 11 -63 -2
-111 -25 -210 -99 -79 -59 -217 -220 -292 -341 -44 -71 -144 -263 -173 -335
-19 -47 -38 -89 -41 -95 -4 -5 -12 -34 -19 -63 -6 -28 -16 -54 -21 -57 -4 -3
-6 -12 -3 -19 3 -8 1 -17 -5 -21 -7 -3 -11 -41 -11 -89 0 -97 7 -109 150 -256
254 -260 477 -402 665 -424 28 -3 61 -8 75 -11 29 -7 146 -7 181 0 13 3 38 7
54 10 69 12 92 19 151 46 93 43 105 40 132 -28 12 -32 32 -71 45 -87 22 -27
27 -28 96 -27 40 0 81 6 91 11 16 9 22 6 33 -17 8 -16 18 -39 22 -53 16 -56
118 -269 174 -365 101 -174 215 -305 332 -386 51 -34 193 -108 230 -118 8 -2
37 -11 64 -19 52 -15 205 -49 265 -58 45 -7 484 -8 530 -1 19 2 42 7 50 9 8 3
64 17 124 32 288 71 550 239 719 461 37 49 154 256 155 275 0 3 6 19 12 35 7
17 20 55 29 85 l17 55 62 1 c49 1 66 5 78 20 22 28 64 116 64 137 0 26 37 22
127 -15 43 -17 107 -37 143 -44 64 -13 251 -13 300 0 14 3 38 8 53 11 46 9
158 54 227 92 55 30 114 72 212 151 44 35 266 259 294 295 16 21 32 49 36 62
12 46 -2 158 -30 235 -3 8 -6 21 -8 27 -14 70 -176 405 -244 508 -132 198
-266 331 -397 395 -58 29 -127 32 -208 11 -22 -6 -53 -13 -70 -15 -16 -2 -32
-5 -35 -6 -3 -1 -9 -3 -15 -4 -56 -9 -147 -55 -174 -87 -24 -31 -30 -60 -33
-170 -1 -55 3 -74 24 -110 15 -25 39 -51 55 -58 15 -7 35 -17 43 -20 15 -7
121 -6 170 2 37 6 83 32 100 57 41 59 36 58 69 26 60 -57 77 -118 85 -296 2
-52 12 -108 25 -145 25 -72 25 -72 4 -54 -79 63 -239 91 -340 59 -56 -18 -153
-74 -198 -114 -22 -20 -42 -35 -45 -33 -3 1 -54 27 -114 57 -106 53 -111 54
-195 55 -47 0 -96 -2 -109 -5 -20 -4 -27 4 -61 82 -41 91 -96 179 -149 237
-17 19 -28 39 -26 46 6 15 -33 45 -57 45 -9 0 -23 7 -30 16 -19 24 -150 109
-228 149 -107 55 -233 90 -396 110 -60 8 -173 8 -184 0 -28 -17 -19 133 14
226 37 106 34 134 -18 184 -67 63 -169 86 -210 46 -29 -28 -35 -70 -20 -141
16 -80 27 -160 20 -160 -2 0 -21 28 -43 62 -108 175 -284 320 -526 431 -65 30
-157 64 -193 72 -5 1 -13 3 -17 4 -4 1 -26 8 -48 16 -22 8 -40 12 -40 8 0 -3
-6 -1 -12 4 -7 5 -20 9 -28 8 -8 -1 -26 3 -40 8 -31 11 -337 16 -405 6z"/>
</g>
</svg>
